<svg xmlns="http://www.w3.org/2000/svg" viewBox="0 0 256 256"><defs><style>.cls-1,.cls-6{isolation:isolate;}.cls-2{fill:#fff;}.cls-3{fill:#dfc39c;}.cls-4{fill:#d0d4d4;}.cls-5{fill:#8bc052;}.cls-6,.cls-9{fill:#010101;}.cls-6,.cls-8{opacity:0.1;}.cls-7{fill:#a1cf69;}.cls-10{mix-blend-mode:multiply;}.cls-11{fill:#775537;}.cls-12{fill:#f15957;}.cls-13{fill:#df2d2a;}.cls-14{fill:#c9e9ea;}.cls-15{fill:#a3ddec;}.cls-16{fill:#313133;}</style></defs><g class="cls-1"><g id="Layer_1" data-name="Layer 1"><path class="cls-2" d="M80.21,110.3c-1.18,0-1.53-.74-.78-1.65l4.38-5.28H39.57v73.44a13.79,13.79,0,0,1,20.22,3.54h0a9.63,9.63,0,0,1,8.67-.23,13.46,13.46,0,0,1,24-2.27V110.3Z"/><path class="cls-2" d="M172.19,103.37l4.38,5.28c.75.91.4,1.65-.78,1.65H163.55V205h52.88V103.37Z"/><path class="cls-3" d="M233.65,101.56,207.29,59.84A4.38,4.38,0,0,0,204,58H134.6l37.59,45.35h60.46C233.83,103.37,234.28,102.56,233.65,101.56Z"/><path class="cls-4" d="M48.1,173.86a13.83,13.83,0,0,1,2.33.2V103.37H39.57v73.44A13.74,13.74,0,0,1,48.1,173.86Z"/><path class="cls-5" d="M59.79,180.35A13.79,13.79,0,0,0,35.6,193.47H55.94a9.62,9.62,0,0,1,3.85-13.12Z"/><path class="cls-6" d="M46.46,193.47A13.8,13.8,0,0,1,53.52,175a13.79,13.79,0,0,0-17.92,18.5Z"/><path class="cls-7" d="M81,171.5a13.48,13.48,0,0,0-12.56,8.62,9.52,9.52,0,0,0-4.1-.92,9.62,9.62,0,0,0-8.42,14.27H92.45V177.85A13.46,13.46,0,0,0,81,171.5Z"/><path class="cls-3" d="M29.92,193.47a2.16,2.16,0,0,0-2.15,2.15v7.19A2.16,2.16,0,0,0,29.92,205H92.45V193.47Z"/><g class="cls-8"><path class="cls-9" d="M38.61,202.81v-7.19a2.15,2.15,0,0,1,2.14-2.15H29.92a2.16,2.16,0,0,0-2.15,2.15v7.19A2.16,2.16,0,0,0,29.92,205H40.75A2.15,2.15,0,0,1,38.61,202.81Z"/></g><path class="cls-3" d="M121.4,58H52a4.37,4.37,0,0,0-3.3,1.81L22.35,101.56c-.63,1-.18,1.81,1,1.81H83.81Z"/><g class="cls-10"><path class="cls-3" d="M33.3,101.56,59.67,59.84A4.36,4.36,0,0,1,63,58H52a4.38,4.38,0,0,0-3.3,1.82L22.35,101.56c-.63,1-.18,1.81,1,1.81h11C33.12,103.37,32.67,102.56,33.3,101.56Z"/></g><path class="cls-11" d="M176.57,108.65l-47.2-56.93a1.72,1.72,0,0,0-2.74,0l-47.2,56.93c-.75.91-.4,1.65.78,1.65H92.45v-.39L128,67l35.55,42.88v.39h12.24C177,110.3,177.32,109.56,176.57,108.65Z"/><polygon class="cls-2" points="163.55 204.96 92.45 204.96 92.45 109.91 128 67.03 163.55 109.91 163.55 204.96"/><polygon class="cls-4" points="133.43 73.58 128 67.03 92.45 109.91 92.45 204.96 103.31 204.96 103.31 109.91 133.43 73.58"/><path class="cls-12" d="M144.87,202.81a2.15,2.15,0,0,1-2.15,2.15H113.28a2.15,2.15,0,0,1-2.15-2.15V150.63a2.15,2.15,0,0,1,2.15-2.15h29.44a2.15,2.15,0,0,1,2.15,2.15Z"/><path class="cls-13" d="M122,202.81V150.63a2.16,2.16,0,0,1,2.15-2.15H113.28a2.15,2.15,0,0,0-2.15,2.15v52.18a2.15,2.15,0,0,0,2.15,2.15h10.85A2.16,2.16,0,0,1,122,202.81Z"/><path class="cls-14" d="M74.75,159.28a2.16,2.16,0,0,1-2.15,2.15H60.06a2.15,2.15,0,0,1-2.15-2.15V126.92a2.15,2.15,0,0,1,2.15-2.15H72.6a2.16,2.16,0,0,1,2.15,2.15Z"/><path class="cls-15" d="M68.69,159.28V126.92a2.16,2.16,0,0,1,2.15-2.15H60.06a2.15,2.15,0,0,0-2.15,2.15v32.36a2.15,2.15,0,0,0,2.15,2.15H70.84A2.16,2.16,0,0,1,68.69,159.28Z"/><path class="cls-14" d="M198.09,159.28a2.15,2.15,0,0,1-2.15,2.15H183.4a2.16,2.16,0,0,1-2.15-2.15V126.92a2.16,2.16,0,0,1,2.15-2.15h12.54a2.15,2.15,0,0,1,2.15,2.15Z"/><path class="cls-15" d="M192,159.28V126.92a2.15,2.15,0,0,1,2.15-2.15H183.4a2.16,2.16,0,0,0-2.15,2.15v32.36a2.16,2.16,0,0,0,2.15,2.15h10.79A2.15,2.15,0,0,1,192,159.28Z"/><path class="cls-14" d="M118.58,121.92a1.41,1.41,0,0,1-1.41-1.41V108.26a9.44,9.44,0,0,1,9.43-9.43h2.8a9.44,9.44,0,0,1,9.43,9.43v12.25a1.41,1.41,0,0,1-1.41,1.41Z"/><path class="cls-15" d="M128,120.51V108.26a9.44,9.44,0,0,1,5.41-8.53,9.25,9.25,0,0,0-4-.9h-2.8a9.44,9.44,0,0,0-9.43,9.43v12.25a1.41,1.41,0,0,0,1.41,1.41h10.83A1.41,1.41,0,0,1,128,120.51Z"/><path class="cls-16" d="M119.4,182.51a3.23,3.23,0,0,0,3.23-3.23v-6.52a3.23,3.23,0,0,0-6.45,0v6.52A3.23,3.23,0,0,0,119.4,182.51Z"/><path class="cls-16" d="M72.6,121.55H60.06a5.38,5.38,0,0,0-5.38,5.37v32.36a5.38,5.38,0,0,0,5.38,5.37H72.6A5.38,5.38,0,0,0,78,159.28V126.92A5.38,5.38,0,0,0,72.6,121.55Zm-1.08,36.66H61.13V128H71.52Z"/><path class="cls-16" d="M195.94,121.55H183.4a5.38,5.38,0,0,0-5.37,5.37v32.36a5.38,5.38,0,0,0,5.37,5.37h12.54a5.38,5.38,0,0,0,5.38-5.37V126.92A5.38,5.38,0,0,0,195.94,121.55Zm-1.07,36.66H184.48V128h10.39Z"/><path class="cls-16" d="M129.4,95.61h-2.8A12.66,12.66,0,0,0,114,108.26v12.25a4.64,4.64,0,0,0,4.63,4.64h18.84a4.64,4.64,0,0,0,4.63-4.64V108.26A12.66,12.66,0,0,0,129.4,95.61Zm6.21,23.09H120.39V108.26a6.22,6.22,0,0,1,6.21-6.21h2.8a6.22,6.22,0,0,1,6.21,6.21V118.7Z"/><path class="cls-16" d="M234.8,201.74H219.65V106.6h13a4.28,4.28,0,0,0,3.73-6.77L210,58.12a7.61,7.61,0,0,0-6-3.32H136.11l-4.26-5.13a4.93,4.93,0,0,0-7.7,0l-4.26,5.13H52a7.59,7.59,0,0,0-6,3.32L19.62,99.83a4.28,4.28,0,0,0,3.73,6.77h13v68.76a17,17,0,0,0-5.27,12.29,17.21,17.21,0,0,0,.21,2.6H29.92a5.38,5.38,0,0,0-5.37,5.37v6.12H21.2a3.22,3.22,0,1,0,0,6.44H234.8a3.22,3.22,0,1,0,0-6.44ZM221.57,88.47H164l-4.28-5.15h58.56ZM211,71.71l3.26,5.16H154.41l-4.28-5.16Zm-7-10.46a1.51,1.51,0,0,1,.62.34l2.32,3.68H144.79l-3.33-4ZM45,71.71H66.54a3.23,3.23,0,1,0,0-6.45H49.1l2.32-3.67a1.51,1.51,0,0,1,.62-.34h62.5l-3.33,4H81.58a3.23,3.23,0,0,0,0,6.45h24.29l-4.28,5.16H41.77ZM37.69,83.32H96.25L92,88.47H34.43ZM27.05,100.15l3.31-5.23H86.63l-4.34,5.23Zm24.55,90.1H37.86a10.55,10.55,0,0,1,17.33-10.41,12.79,12.79,0,0,0-3.67,9A13.55,13.55,0,0,0,51.6,190.25Zm37.62,11.49H31v-5H89.22v5Zm0-11.49H58.13a6.74,6.74,0,0,1-.16-1.43A6.39,6.39,0,0,1,67.09,183a3.22,3.22,0,0,0,4.38-1.75,10.21,10.21,0,0,1,17.75-2.41v11.38Zm0-19.79a16.52,16.52,0,0,0-8.2-2.18,16.82,16.82,0,0,0-14.2,7.93,12.59,12.59,0,0,0-2.46-.24,12.88,12.88,0,0,0-3.48.48,17.14,17.14,0,0,0-12.78-5.82,16.91,16.91,0,0,0-5.3.85V106.6H77a4.09,4.09,0,0,0,3.26,6.93h9v56.93Zm-4.3-63.38,43.08-52,43.08,52h-5.69L130.48,65a3.21,3.21,0,0,0-5,0L90.61,107.08Zm56.73,94.66h-27.3v-50h27.3Zm71.55,0H166.78V162.81a3.23,3.23,0,0,0-6.45,0v38.93H148.1V150.63a5.38,5.38,0,0,0-5.38-5.37H113.28a5.38,5.38,0,0,0-5.38,5.37v51.11H95.67V111.07l32.33-39,32.33,39v36.48a3.23,3.23,0,1,0,6.45,0v-34h9a4.09,4.09,0,0,0,3.26-6.93h12.56a3.23,3.23,0,0,0,0-6.45h-17.9l-4.34-5.23h56.27l3.31,5.23H207.08a3.23,3.23,0,0,0,0,6.45h6.12Z"/></g></g></svg>